<?xml version="1.0" encoding="utf-8"?>
<!-- Generator: Adobe Illustrator 18.0.0, SVG Export Plug-In . SVG Version: 6.00 Build 0)  -->
<!DOCTYPE svg PUBLIC "-//W3C//DTD SVG 1.1//EN" "http://www.w3.org/Graphics/SVG/1.1/DTD/svg11.dtd">
<svg version="1.1" id="Layer_1" xmlns="http://www.w3.org/2000/svg" xmlns:xlink="http://www.w3.org/1999/xlink" x="0px" y="0px"
	 viewBox="0 0 64 64" enable-background="new 0 0 64 64" xml:space="preserve">
<g>
	<g>
		<g>
			<path fill="#F94646" d="M32,0c17.7,0,32,14.3,32,32S49.7,64,32,64S0,49.7,0,32S14.3,0,32,0z"/>
		</g>
	</g>
	<g>
		<g>
			<path fill="#FFFFFF" d="M41.8,10l8.2,7.8v34.8c0,0.8-0.7,1.4-1.5,1.4h-33c-0.8,0-1.5-0.6-1.5-1.4V11.4c0-0.8,0.7-1.4,1.5-1.4
				H41.8z"/>
		</g>
	</g>
	<g>
		<g>
			<polygon fill="#D3D5DD" points="50,17.8 41.8,17.8 41.8,10 			"/>
		</g>
	</g>
	<g>
		<g>
			<path d="M42,44.9v1.3h-1V48h-1.5v-1.8h-3.3v-1.5l3.2-4.7H41v4.9H42z M39.5,44.9v-3l-2,3H39.5z"/>
		</g>
	</g>
	<g>
		<g>
			<polygon fill="#1CD396" points="37,25 27,31 27,19 			"/>
		</g>
	</g>
	<g>
		<g>
			<path d="M35.7,41.3c0.1,0.3,0.2,0.7,0.2,1.1c0,0.8-0.2,1.4-0.7,1.8c-0.5,0.4-1.1,0.6-2,0.6H32V48h-1.6v-8h2.8
				c0.4,0,0.8,0,1.1,0.1c0.3,0.1,0.6,0.2,0.9,0.4C35.3,40.8,35.5,41,35.7,41.3z M34.3,42.5c0-0.2,0-0.4-0.1-0.5
				c0-0.1-0.1-0.2-0.2-0.3c-0.2-0.1-0.5-0.2-1-0.2h-1v1.9h1c0.2,0,0.3,0,0.5,0c0.1,0,0.3-0.1,0.4-0.1c0.1-0.1,0.2-0.2,0.3-0.3
				C34.2,42.8,34.3,42.7,34.3,42.5z"/>
		</g>
	</g>
	<g>
		<g>
			<polygon points="29.1,40 29.1,48 27.6,48 27.6,42.6 26.1,48 24.9,48 23.5,42.6 23.5,48 22,48 22,40 24.2,40 25.5,45.2 26.9,40 
							"/>
		</g>
	</g>
</g>
</svg>
